<svg xmlns="http://www.w3.org/2000/svg" width="1200" height="260" viewBox="0 0 1200 260">
  <defs>
    <linearGradient id="g" x1="0" y1="0" x2="1" y2="1">
      <stop offset="0%" stop-color="#6EE7F9"/>
      <stop offset="50%" stop-color="#A78BFA"/>
      <stop offset="100%" stop-color="#F472B6"/>
    </linearGradient>

    <filter id="softShadow" x="-20%" y="-20%" width="140%" height="140%">
      <feDropShadow dx="0" dy="10" stdDeviation="12" flood-opacity="0.25"/>
    </filter>
  </defs>

  <!-- Background -->
  <rect width="1200" height="260" fill="url(#g)"/>

  <!-- Top wave -->
  <path d="M0,110 C160,150 280,60 420,105 C560,150 700,70 860,110 C1020,150 1100,95 1200,120 L1200,0 L0,0 Z"
        fill="rgba(255,255,255,0.22)"/>

  <!-- Bottom wave -->
  <path d="M0,210 C170,250 300,150 450,200 C600,250 760,160 900,205 C1040,250 1110,210 1200,220 L1200,260 L0,260 Z"
        fill="rgba(255,255,255,0.28)"/>

  <!-- Card -->
  <g filter="url(#softShadow)">
    <rect x="70" y="55" rx="22" ry="22" width="1060" height="150" fill="rgba(0,0,0,0.28)"/>
  </g>

  <!-- Text -->
  <text x="110" y="125" font-family="Segoe UI, Inter, Arial, sans-serif" font-size="44" fill="#ffffff" font-weight="700">
    Hi 👋, I'm Gayanga Bandara
  </text>

  <text x="110" y="165" font-family="Segoe UI, Inter, Arial, sans-serif" font-size="22" fill="rgba(255,255,255,0.92)" font-weight="500">
    Full-Stack Developer • Tech Explorer • Problem Solver
  </text>
</svg>
